<?xml version="1.0" encoding="utf-8"?>
<svg viewBox="0 0 564 564" width="564px" height="564px" style="shape-rendering:geometricPrecision; text-rendering:geometricPrecision; image-rendering:optimizeQuality; fill-rule:evenodd; clip-rule:evenodd" xmlns="http://www.w3.org/2000/svg">
  <g transform="matrix(1, 0, 0, 1, -1.1368683772161603e-13, 0)">
    <path style="opacity:0.98" fill="#ffffff" d="M 197.5 -0.5 C 209.159 -2.908 302.569 -6.297 354.5 -0.5 C 372.221 2.63 389.474 7.288 406.5 13 C 465.673 37.174 500.756 80.195 514.249 142.687 C 517.357 166.406 521.11 192.575 515.5 214 C 506.642 232.338 491.975 242.171 471.5 243.5 C 434.505 244.667 397.505 244.833 360.5 244 C 357.421 244.024 356.473 244.094 354.585 244.037 C 349.523 244.177 349.735 244.933 348.825 245.728 C 348.056 247.452 348.086 247.353 348 250.5 C 347.807 285.179 347.307 319.846 346.5 354.5 C 346.113 373.201 319.44 411.292 294.5 432 C 286.108 438.728 277.441 445.061 268.5 451 C 245.184 464.001 220.518 473.668 194.5 480 C 188.939 481.779 183.606 484.113 178.5 487 C 161.485 500.504 144.485 514.004 127.5 527.5 C 119.623 534.33 111.956 541.33 104.5 548.5 C 104.157 548.857 101.968 550.554 101.644 550.864 C 99.056 553.276 99.781 552.695 97.7 554.045 C 96.231 555.208 95.916 555.114 94.537 556.064 C 92.332 557.584 92.48 557.747 90.755 558.699 C 87.83 560.161 86.354 561.278 83.537 562.41 C 81.338 563.294 73.527 565.278 66.628 564.918 C 60.455 563.891 60.727 562.979 59.082 561.772 C 56.506 559.881 56.127 555.474 56 551.5 C 55.506 413.342 55.339 148.944 55.5 137.5 C 75.492 63.63 122.826 17.63 197.5 -0.5 Z M 214.107 49.263 C 239.443 49.096 262.169 49.5 287.5 50 C 293.049 51.221 296.216 54.721 297 60.5 C 297.986 155.53 297.652 250.53 296 345.5 C 295.897 352.392 287.436 364.019 282 372.5 C 270.745 386.42 257.578 398.253 242.5 408 C 237.114 411.282 231.392 413.225 225 414.5 C 222.719 414.437 220.886 413.603 219.5 412 C 218.365 409.111 220.543 404.938 222 401.5 C 243.363 346.139 231.863 298.806 187.5 259.5 C 164.581 241.761 139.415 228.094 112 218.5 C 106.832 215.652 103.832 211.319 103 205.5 C 98.952 169.947 105.618 136.614 123 105.5 C 141.715 77.848 166.633 59.471 200.251 51.456 C 201.917 50.963 204.014 50.686 206.369 50.326 C 207.941 50.086 210.907 49.511 214.107 49.263 Z M 351.5 54.5 C 389.105 56.577 419.938 71.91 444 100.5 C 452.909 113.96 459.243 128.293 463 143.5 C 465.189 154.365 467.023 165.198 468.5 176 C 468.779 178.872 470.185 186.865 465.265 188.869 C 463.509 189.79 461.777 190.29 458.5 190.5 C 424.505 191.667 390.505 191.833 356.5 191 C 350.365 190.726 349.014 191.907 349 186.5 C 347.355 144.213 348.112 102.07 348 59.5 C 347.991 56.094 347.627 54.618 351.5 54.5 Z M 106.5 274.5 C 110.25 274.189 113.103 274.502 116.012 275.439 C 138.253 284.042 156.241 297.103 171 315.5 C 185.044 341.04 188.466 362.392 174.089 387.852 C 173.076 389.867 173.41 389.527 171.5 393 C 156.498 420.308 138.498 445.308 117.5 468 C 114.801 470.293 113.318 471.452 110.017 472.826 C 108 473.576 106.059 473.6 104.755 473.278 C 102.776 472.789 103.052 467.208 103 463.5 C 102.333 403.5 102.333 343.5 103 283.5 C 103.007 276.761 102.71 274.565 106.5 274.5 Z"/>
  </g>
  <g transform="matrix(1, 0, 0, 1, -1.1368683772161603e-13, 0)">
    <path style="opacity:0.004" fill="#ffffff" d="M 104.5,548.5 C 105.043,548.56 105.376,548.893 105.5,549.5C 104.743,550.773 104.077,550.773 103.5,549.5C 104.167,549.5 104.5,549.167 104.5,548.5 Z"/>
  </g>
  <ellipse style="fill: rgb(255, 255, 255); stroke: rgb(255, 255, 255);" cx="225.687" cy="120.972" rx="20.371" ry="20.371" transform="matrix(1, 0, 0, 1, -1.1368683772161603e-13, 0)"/>
</svg>