<?xml version="1.0" encoding="utf-8"?>
<svg viewBox="0 0 564 564" width="564px" height="564px" style="shape-rendering:geometricPrecision; text-rendering:geometricPrecision; image-rendering:optimizeQuality; fill-rule:evenodd; clip-rule:evenodd" xmlns="http://www.w3.org/2000/svg">
  <g>
    <path style="opacity:0.994" fill="#3f86e7" d="M 257.5,-0.5 C 273.167,-0.5 288.833,-0.5 304.5,-0.5C 411.611,12.1424 489.445,66.4757 538,162.5C 551.542,192.938 560.042,224.605 563.5,257.5C 563.5,273.167 563.5,288.833 563.5,304.5C 549.852,417.965 490.852,497.798 386.5,544C 360.21,554.019 333.21,560.519 305.5,563.5C 289.833,563.5 274.167,563.5 258.5,563.5C 157.605,552.051 82.105,502.385 32,414.5C 14.1631,380.131 3.32982,343.798 -0.5,305.5C -0.5,289.833 -0.5,274.167 -0.5,258.5C 11.7491,152.124 65.4158,74.6239 160.5,26C 191.455,11.6805 223.788,2.84719 257.5,-0.5 Z"/>
  </g>
  <g>
    <path style="opacity:1" fill="#ffffff" d="M 258.5 112.5 C 283.169 112.333 307.836 112.5 332.5 113 C 358.839 114.224 382.839 122.224 404.5 137 C 428.881 156.258 442.381 181.425 445 212.5 C 446.115 224.954 445.449 237.287 443 249.5 C 439.686 256.149 434.519 260.649 427.5 263 C 399.13 263.945 370.797 264.945 342.5 266 C 339.138 266.796 339.367 267.319 339 270.5 C 340.578 340.822 331.892 382.844 261.5 408 C 253.617 410.817 245.746 413.489 237.5 415 C 217.229 430.273 197.562 446.273 178.5 463 C 171.267 469.999 156.96 472.071 157 457.5 C 156.333 374.5 156.333 291.5 157 208.5 C 163.667 165.49 187.167 135.657 227.5 119 C 237.725 115.659 248.058 113.492 258.5 112.5 Z"/>
  </g>
  <g>
    <path style="opacity:1" fill="#3f86e7" d="M 253.5 143.5 C 270.17 143.333 286.837 143.5 303.5 144 C 306.667 144.5 308.5 146.333 309 149.5 C 309.977 210.531 309.644 271.531 308 332.5 C 307.968 340.326 283.441 366.394 263 374.5 C 259.508 375.433 257.869 373.012 258.5 371 C 276.396 322.679 262.73 286.346 217.5 262 C 209.024 257.758 200.357 254.092 191.5 251 C 188.894 249.062 187.061 246.562 186 243.5 C 180.847 211.025 190.014 183.525 213.5 161 C 225.37 151.559 238.703 145.726 253.5 143.5 Z"/>
  </g>
  <g>
    <path style="opacity:1" fill="#3f86e7" d="M 343.5 145.5 C 391.277 152.103 415.444 179.437 416 227.5 C 415.866 231.003 416.148 231.526 413.5 232 C 389.897 233.636 366.23 233.97 342.5 233 C 340.201 232.873 340.236 232.935 340 230.5 C 338.36 204.229 339.016 177.896 339 151.5 C 338.998 148.357 338.615 144.453 343.5 145.5 Z"/>
  </g>
  <g>
    <ellipse style="stroke: rgb(255, 255, 255); stroke-width: 0px; fill: rgb(255, 255, 255);" cx="263.881" cy="189.065" rx="12.156" ry="12.156"/>
  </g>
  <g>
    <path style="opacity:1" fill="#3f86e7" d="M 187.5 284.5 C 203.506 287.591 217.006 295.258 228 307.5 C 237.188 321.581 238.855 336.581 233 352.5 C 223.335 374.315 209.835 393.481 192.5 410 C 188.857 411.357 186.69 410.19 186 406.5 C 185.333 366.833 185.333 327.167 186 287.5 C 186.035 285.339 185.826 283.881 187.5 284.5 Z"/>
  </g>
</svg>